<svg width="265" height="60" viewBox="0 0 265 60" fill="none" xmlns="http://www.w3.org/2000/svg">
<path fill-rule="evenodd" clip-rule="evenodd" d="M14.5205 42.8571H0V0H31.9452V13.5714H14.5205V18.5714H31.2192V32.1429H14.5205V42.8571ZM55.9041 8.57138V10.7143C55.9041 10.6151 58.5662 7.8571 64.6164 7.89678C66.3434 7.75968 68.0798 8.00374 69.6987 8.6111V22.5C67.6105 21.7341 65.3922 21.3703 63.1644 21.4285C58.1226 21.4285 55.9041 22.6786 55.9041 27.1428V42.8571H40.6575V8.57138H55.9041ZM90.7534 0H75.5069V12.8571H90.7534V0ZM75.5069 15.7143H90.7534V42.8571H75.5069V15.7143ZM116.89 7.14283C104.508 7.14283 99.4658 14.0278 99.4658 22.8571V28.5714C99.4658 37.4206 104.508 44.2857 116.89 44.2857C126.974 44.2857 133.024 38.75 133.952 31.4286H120.52C120.489 31.857 120.368 32.2744 120.165 32.6546C119.962 33.0348 119.681 33.3696 119.34 33.6379C118.999 33.9062 118.606 34.1023 118.184 34.2137C117.763 34.3252 117.322 34.3498 116.89 34.2857C116.495 34.3468 116.09 34.315 115.71 34.193C115.329 34.071 114.983 33.8622 114.7 33.5836C114.417 33.3051 114.205 32.9648 114.081 32.5903C113.957 32.2157 113.924 31.8177 113.986 31.4286V28.5714H134.315V22.8571C134.315 14.0278 129.253 7.14283 116.89 7.14283ZM113.986 22.8571V20C113.924 19.6109 113.957 19.2128 114.081 18.8383C114.205 18.4638 114.417 18.1234 114.7 17.8449C114.983 17.5664 115.329 17.3576 115.71 17.2356C116.09 17.1136 116.495 17.0818 116.89 17.1428C117.286 17.0818 117.691 17.1136 118.071 17.2356C118.452 17.3576 118.798 17.5664 119.081 17.8449C119.364 18.1234 119.576 18.4638 119.7 18.8383C119.824 19.2128 119.857 19.6109 119.794 20V22.8571H113.986ZM157.548 10.7143C159.53 8.91853 162.114 7.90175 164.808 7.85715C172.25 7.85715 177.877 10.5357 177.877 22.1429V42.8571H163.356V22.1429C163.418 21.7538 163.386 21.3557 163.262 20.9812C163.138 20.6066 162.926 20.2663 162.643 19.9878C162.359 19.7092 162.014 19.5005 161.633 19.3785C161.252 19.2565 160.848 19.2247 160.452 19.2857C160.057 19.2247 159.652 19.2565 159.271 19.3785C158.891 19.5005 158.545 19.7092 158.262 19.9878C157.978 20.2663 157.766 20.6066 157.642 20.9812C157.518 21.3557 157.486 21.7538 157.548 22.1429V42.8571H143.027V8.5714H157.548V10.7143ZM206.918 10.7143C204.936 8.91853 202.352 7.90175 199.658 7.85715C192.216 7.85715 186.589 10.5357 186.589 22.1429V29.2857C186.589 40.8928 192.216 43.5714 199.658 43.5714C202.352 43.5268 204.936 42.51 206.918 40.7143V42.8571H221.438V1.979e-05H206.918V10.7143ZM206.918 29.2857C206.98 29.6748 206.948 30.0729 206.824 30.4474C206.7 30.8219 206.487 31.1623 206.204 31.4408C205.921 31.7193 205.575 31.9281 205.194 32.0501C204.814 32.1721 204.409 32.2039 204.014 32.1428C203.618 32.2039 203.214 32.1721 202.833 32.0501C202.452 31.9281 202.106 31.7193 201.823 31.4408C201.54 31.1623 201.328 30.8219 201.204 30.4474C201.08 30.0729 201.048 29.6748 201.11 29.2857V22.1429C201.048 21.7538 201.08 21.3557 201.204 20.9812C201.328 20.6066 201.54 20.2663 201.823 19.9878C202.106 19.7092 202.452 19.5005 202.833 19.3785C203.214 19.2565 203.618 19.2247 204.014 19.2857C204.409 19.2247 204.814 19.2565 205.194 19.3785C205.575 19.5005 205.921 19.7092 206.204 19.9878C206.487 20.2663 206.7 20.6066 206.824 20.9812C206.948 21.3557 206.98 21.7538 206.918 22.1429V29.2857ZM250.479 29.2857V8.5714H265V44.2857C265 53.1349 259.938 60 247.575 60C235.677 60 230.816 52.8373 230.151 45H244.671C244.609 45.3891 244.642 45.7872 244.766 46.1617C244.89 46.5362 245.102 46.8766 245.385 47.1551C245.668 47.4336 246.014 47.6424 246.395 47.7644C246.775 47.8864 247.18 47.9182 247.575 47.8572C247.971 47.9182 248.375 47.8864 248.756 47.7644C249.137 47.6424 249.483 47.4336 249.766 47.1551C250.049 46.8766 250.261 46.5362 250.385 46.1617C250.509 45.7872 250.542 45.3891 250.479 45V40.7143C248.497 42.51 245.913 43.5268 243.219 43.5714C235.777 43.5714 230.151 40.8928 230.151 29.2857V8.5714H244.671V29.2857C244.609 29.6748 244.642 30.0729 244.766 30.4474C244.89 30.8219 245.102 31.1623 245.385 31.4408C245.668 31.7193 246.014 31.9281 246.395 32.0501C246.775 32.1721 247.18 32.2039 247.575 32.1428C247.971 32.2039 248.375 32.1721 248.756 32.0501C249.137 31.9281 249.483 31.7193 249.766 31.4408C250.049 31.1623 250.261 30.8219 250.385 30.4474C250.509 30.0729 250.542 29.6748 250.479 29.2857Z" fill="#0C6F6A"/>
</svg>
