<svg width="20" height="20" viewBox="0 0 20 20" fill="none" xmlns="http://www.w3.org/2000/svg">
<path d="M11.4417 17.5C11.2952 17.7526 11.0849 17.9622 10.8319 18.1079C10.5788 18.2537 10.292 18.3304 10 18.3304C9.70802 18.3304 9.42116 18.2537 9.16815 18.1079C8.91513 17.9622 8.70484 17.7526 8.55833 17.5M15 6.66666C15 5.34058 14.4732 4.06881 13.5355 3.13113C12.5979 2.19345 11.3261 1.66666 10 1.66666C8.67392 1.66666 7.40215 2.19345 6.46447 3.13113C5.52678 4.06881 5 5.34058 5 6.66666C5 12.5 2.5 14.1667 2.5 14.1667H17.5C17.5 14.1667 15 12.5 15 6.66666Z" stroke="black" stroke-linecap="round" stroke-linejoin="round"/>
<path d="M4.58333 10.8334L2.5 14.1667H17.5L15.8333 12.0834L15 8.75006V5.41673L14.1667 3.75006L11.25 1.66673H8.75L5.41667 4.16673L5 6.66673L4.58333 10.8334Z" fill="black"/>
<path fill-rule="evenodd" clip-rule="evenodd" d="M7.5 15.8333C7.5 15.8333 7.5 15.8333 7.5 15.8333C7.5 17.4441 8.61929 18.75 10 18.75C11.3807 18.75 12.5 17.4441 12.5 15.8333C12.5 15.8333 12.5 15.8333 12.5 15.8333H7.5Z" fill="black"/>
</svg>
